<svg width="116" height="38" viewBox="0 0 116 38" fill="none" xmlns="http://www.w3.org/2000/svg">
<path d="M38.459 22.0838L36.3373 12.5045L34.2999 22.0838H38.459ZM27.8492 31.6635L33.9604 6.17354H39.3929L44.9101 30.1855V6.17354H52.6343L55.52 23.0003L59.0003 6.17354H66.1302V31.6635H60.9525V13.4206L56.7086 31.6635H53.5678L49.324 13.3378V31.6635H40.072L39.0533 26.0822H33.6208L32.3478 31.6635H27.8492ZM17.1541 31.6635V6.17354H22.3319V26.9987H27.3396V31.6635H17.1541ZM16.0507 15.0868H11.8065C12.2154 10.19 9.23485 9.93479 9.09378 9.92264L9.09002 9.92227C5.27051 10.0887 5.52565 18.8351 5.52565 18.8351C5.69524 28.5816 8.66605 27.4983 8.66605 27.4983C12.4856 27.6651 11.7217 22.167 11.7217 22.167H8.66605V18.2522H16.3051V31.5803H14.0982L13.4191 28.748C11.8912 32.3296 7.64739 31.9967 7.64739 31.9967C-0.755912 31.7464 0.347544 17.5858 0.347544 17.5858C0.941857 5.50745 8.83564 5.75709 8.83564 5.75709C16.8146 5.34102 16.0507 15.0868 16.0507 15.0868ZM105.6 10.1719V17.5026C110.608 18.2522 110.183 14.1703 110.183 14.1703C110.523 9.08902 105.6 10.1719 105.6 10.1719ZM115.446 13.2538C115.446 13.2538 116.464 17.669 111.966 20.7513L115.701 31.5803H110.353L107.467 21.8338H105.685V31.5803H100.592V6.09032H108.146C108.146 6.09032 115.276 5.50708 115.446 13.2538ZM94.3105 24.9997C94.3105 24.9997 94.8201 27.6651 91.8493 27.8316H91.3397C88.3689 27.6651 88.8784 24.9993 88.8784 24.9993V6.17354H83.8703V23.2499C83.8703 23.2499 82.682 32.5796 91.1701 32.2464H92.0188C100.507 32.5796 99.3187 23.2499 99.3187 23.2499V6.17354H94.3105V24.9997ZM74.8731 27.7484C76.7404 27.6651 77.08 24.9161 77.08 24.9161C77.4195 24.0832 77.2496 14.6703 77.1648 14.7535C76.9952 11.0884 75.3822 10.5051 74.7883 10.4219C74.1939 10.5051 72.5813 11.0052 72.4114 14.7535C72.4114 14.7535 72.3266 24.0832 72.5813 24.9161C72.5813 24.9161 73.0057 27.6651 74.7883 27.7484H74.8731ZM74.8731 5.84031C76.1461 5.75709 82.9368 6.09069 82.9368 18.8351C82.9368 18.8351 83.6159 32.9129 74.8731 32.1632C66.215 32.9961 66.8093 18.8351 66.8093 18.8351C66.8093 6.09033 73.5996 5.75709 74.8731 5.84031Z" fill="#D4D4CD"/>
</svg>
