<svg width="114" height="38" viewBox="0 0 114 38" fill="none" xmlns="http://www.w3.org/2000/svg">
<g clip-path="url(#clip0_2009_10139)">
<path d="M42.4238 20.864C42.4238 24.0982 41.876 26.2695 40.7944 27.4069C39.7147 28.5454 37.8793 29.1141 35.3331 29.1141C33.8386 29.1141 32.58 28.8303 31.5444 28.2605C30.5077 27.6918 29.7819 26.8684 29.3531 25.8205C28.9232 24.7576 28.7163 23.1097 28.7163 20.8781V6.02467H25.2374V20.8942C25.2374 23.6191 25.5783 25.7762 26.2441 27.3475C26.9109 28.9199 28.0355 30.1177 29.59 30.9562C31.1595 31.7796 33.1718 32.1994 35.629 32.1994C38.1602 32.1994 40.2036 31.7202 41.772 30.7771C43.3265 29.8178 44.4072 28.5907 45.014 27.0627C45.6058 25.5357 45.9167 23.4842 45.9167 20.9093V6.02467H42.4238V20.864ZM10.1543 32.0343C11.8418 32.0343 13.2773 31.8843 14.4469 31.6005C15.6166 31.3156 16.5783 30.8817 17.363 30.312C18.1327 29.7433 18.7835 28.935 19.3164 27.8861C19.838 26.8306 20.1068 25.6667 20.1011 24.4878C20.1011 22.9749 19.6712 21.6572 18.7985 20.5499C17.9398 19.4417 16.6972 18.6475 15.0987 18.1844C16.3413 17.5845 17.274 16.7913 17.8958 15.8028C18.4976 14.8662 18.8164 13.7738 18.8135 12.6582C18.8135 11.4603 18.4736 10.3229 17.7769 9.2297C17.0821 8.13653 16.1194 7.32722 14.8908 6.80378C13.6622 6.28035 12.0337 6.01058 10.0064 6.01058H0.0146484V32.0343H10.1543ZM3.5375 9.09381H8.85177C10.7611 9.09381 12.1077 9.2146 12.8925 9.45418C13.6772 9.69375 14.284 10.1427 14.6989 10.802C15.1287 11.4603 15.3347 12.2244 15.3347 13.0769C15.3347 13.9909 15.1127 14.7399 14.6549 15.3538C14.195 15.9528 13.5292 16.3866 12.6255 16.6564C11.9458 16.8507 10.8351 16.9554 9.26663 16.9554H3.5385V9.09482L3.5375 9.09381ZM3.5375 20.0255H9.6815C11.3689 20.0255 12.6715 20.1755 13.5742 20.4593C14.4779 20.7442 15.1737 21.2536 15.6915 21.9723C16.1944 22.691 16.4463 23.5295 16.4463 24.5029C16.4463 25.3263 16.2684 26.0601 15.9135 26.6892C15.5576 27.3174 15.1137 27.7965 14.5659 28.1408C14.0191 28.4709 13.3523 28.7105 12.5386 28.8454C12.0787 28.935 11.28 28.9652 10.1403 28.9652H3.5375V20.0255ZM55.5665 17.4496V8.84015H63.9748C65.9442 8.84015 67.3797 9.2297 68.2974 10.0229C69.2151 10.8161 69.659 11.8197 69.659 13.0629C69.659 13.9014 69.422 14.6795 68.9492 15.3981C68.4753 16.1168 67.7946 16.6413 66.8769 16.9554C65.9732 17.2855 64.7156 17.4496 63.1021 17.4496H55.5665ZM76.2608 31.9598L65.3074 20.2047L65.8252 20.1604C68.3714 19.8161 70.2658 19.0068 71.4804 17.7496C72.694 16.4762 73.3158 14.9341 73.3158 13.078C73.3158 11.6405 72.9459 10.337 72.2061 9.15421C71.4654 7.97145 70.4877 7.14804 69.2451 6.684C68.0155 6.21995 66.2101 5.97937 63.8419 5.97937H52.0597V32.0051H55.5825V20.4442H61.1037L71.9832 31.9598H76.2608ZM99.3383 26.3148C97.3989 28.3209 94.9857 29.3547 92.1436 29.3849C89.5245 29.4141 87.1702 28.4407 85.1569 26.509C83.1296 24.5774 82.0779 22.0619 82.0479 19.037C82.0189 16.1481 82.9816 13.692 84.906 11.6999C86.8304 9.69375 89.2276 8.65997 92.0547 8.62977C94.8827 8.60058 97.3099 9.58906 99.2493 11.5499C101.203 13.5128 102.194 15.983 102.224 18.9021C102.239 21.7921 101.277 24.2774 99.3383 26.3148ZM101.603 9.31929C98.9534 6.684 95.3566 5.38145 91.6858 5.41165C87.97 5.44184 85.1279 6.81888 82.5078 9.48437C79.8726 12.1489 78.5551 15.3528 78.599 19.0219C78.644 23.1993 80.1545 26.6137 83.0846 29.1594C85.7637 31.4646 88.7987 32.6181 92.1286 32.5879C95.8884 32.5436 99.1303 31.1807 101.765 28.5313C104.386 25.895 105.703 22.6608 105.658 18.9021C105.629 15.1737 104.253 11.9546 101.603 9.31929ZM112.23 32.5285C112.695 32.5285 113.142 32.3424 113.471 32.0111C113.8 31.6798 113.985 31.2305 113.985 30.762C113.985 30.2934 113.8 29.8441 113.471 29.5128C113.142 29.1815 112.695 28.9954 112.23 28.9954C112 28.9954 111.772 29.0411 111.559 29.1298C111.346 29.2186 111.152 29.3487 110.99 29.5128C110.827 29.6768 110.697 29.8716 110.609 30.0859C110.521 30.3002 110.476 30.53 110.476 30.762C110.476 30.9939 110.521 31.2237 110.609 31.438C110.697 31.6523 110.827 31.8471 110.99 32.0111C111.152 32.1752 111.346 32.3053 111.559 32.3941C111.772 32.4829 112 32.5285 112.23 32.5285Z" fill="#D4D4CD"/>
</g>
<defs>
<clipPath id="clip0_2009_10139">
<rect width="114" height="28" fill="white" transform="translate(0 5)"/>
</clipPath>
</defs>
</svg>
