<svg width="71" height="38" viewBox="0 0 71 38" fill="none" xmlns="http://www.w3.org/2000/svg">
<g clip-path="url(#clip0_2009_10120)">
<path d="M66.2204 30.0022C66.2204 30.0022 69.6587 25.4354 69.6707 19.4764C69.6947 7.77837 61.6559 0.183182 50.4544 0.170971C43.9611 0.15876 38.4502 3.38245 35.1078 8.10807C34.988 7.93712 34.8682 7.77837 34.7483 7.60742C31.9569 3.83425 27.1289 0.0122295 19.6413 1.85812e-05C10.8357 -0.0121923 4.031 5.99557 1.7907 13.3343C1.76673 13.4198 1.74277 13.5175 1.71881 13.603V13.6152C1.25158 15.2637 1 16.9976 1 18.7926C1.01198 20.5021 1.2396 22.1506 1.63495 23.7014C3.04862 29.062 6.72655 33.4824 11.5785 35.8634C11.6144 35.8757 11.6505 35.9001 11.6983 35.9245C11.7223 35.9367 11.7463 35.949 11.7702 35.9612C14.2142 37.0967 16.9576 37.7317 19.8809 37.744C26.0626 37.6951 31.5377 34.6057 34.916 29.8802C34.988 29.7824 35.0478 29.6847 35.1197 29.5871C38.3783 34.3738 43.7934 37.8539 50.5143 37.8539C54.9709 37.8539 58.1218 35.9123 58.6968 35.607L59.8828 37.1945H71.3L66.2204 30.0022ZM19.773 27.3647C15.7836 27.3647 11.2551 24.1532 11.1712 19.0002C11.0754 13.664 15.6039 10.1717 19.773 10.3182C23.1634 10.4403 24.4573 11.4294 26.3382 13.3221C26.3382 13.3221 29.0696 13.3221 31.8491 13.3221C32.0647 13.3221 32.2684 13.3221 32.484 13.3221C32.484 13.3221 32.484 13.3221 32.484 13.3343C32.2205 14.1647 32.0168 15.0072 31.8731 15.862H21.1029V24.7393H25.823C25.823 24.9713 23.403 27.3647 19.773 27.3647ZM59.2719 21.479L58.3014 20.1358H46.7166L51.4248 27.0716C46.5249 28.0485 41.8886 23.8724 41.9604 19.0124C42.0323 14.0426 45.9618 10.3305 50.6701 10.3549C55.8335 10.3915 60.973 16.0574 59.2719 21.479Z" fill="#D4D4CD"/>
</g>
<defs>
<clipPath id="clip0_2009_10120">
<rect width="71" height="38" fill="white"/>
</clipPath>
</defs>
</svg>
