<svg width="11" height="9" viewBox="0 0 11 9" fill="none" xmlns="http://www.w3.org/2000/svg">
<path d="M10.5 4C10.7761 4 11 4.22386 11 4.5C11 4.77614 10.7761 5 10.5 5V4ZM0.146447 4.85355C-0.0488155 4.65829 -0.0488155 4.34171 0.146447 4.14645L3.32843 0.964466C3.52369 0.769204 3.84027 0.769204 4.03553 0.964466C4.2308 1.15973 4.2308 1.47631 4.03553 1.67157L1.20711 4.5L4.03553 7.32843C4.2308 7.52369 4.2308 7.84027 4.03553 8.03553C3.84027 8.2308 3.52369 8.2308 3.32843 8.03553L0.146447 4.85355ZM10.5 4.5V5H0.5V4.5V4H10.5V4.5Z" fill="#1A1A1A"/>
</svg>
