<svg width="16" height="16" viewBox="0 0 16 16" fill="none" xmlns="http://www.w3.org/2000/svg">
<g opacity="0.6">
<path fill-rule="evenodd" clip-rule="evenodd" d="M1.06641 10.1336C1.06641 11.0172 1.78275 11.7336 2.66641 11.7336H4.26641V10.6669H2.66641C2.37186 10.6669 2.13307 10.4281 2.13307 10.1336V2.66689C2.13307 2.37235 2.37186 2.13356 2.66641 2.13356H10.1331C10.4276 2.13356 10.6664 2.37235 10.6664 2.66689V4.26685H5.86641C4.98276 4.26685 4.26641 4.98319 4.26641 5.86685V13.3335C4.26641 14.2171 4.98276 14.9335 5.86641 14.9335H13.3331C14.2167 14.9335 14.9331 14.2171 14.9331 13.3335V5.86685C14.9331 4.98319 14.2167 4.26685 13.3331 4.26685H11.7331V2.66689C11.7331 1.78324 11.0167 1.06689 10.1331 1.06689H2.66641C1.78275 1.06689 1.06641 1.78324 1.06641 2.66689V10.1336ZM5.33307 5.86685C5.33307 5.5723 5.57186 5.33352 5.86641 5.33352H13.3331C13.6276 5.33352 13.8664 5.5723 13.8664 5.86685V13.3335C13.8664 13.6281 13.6276 13.8668 13.3331 13.8668H5.86641C5.57186 13.8668 5.33307 13.6281 5.33307 13.3335V5.86685Z" fill="#1A1A1A"/>
</g>
</svg>
