<svg width="93" height="38" viewBox="0 0 93 38" fill="none" xmlns="http://www.w3.org/2000/svg">
<g clip-path="url(#clip0_2009_10140)">
<path fill-rule="evenodd" clip-rule="evenodd" d="M3.40679 36.7976H0.618164V37.3394H16.0597V27.5863H15.6019C15.6019 27.5863 15.6019 33.2131 13.7289 35.047C12.1473 36.6309 10.4824 36.7559 7.77704 36.7559V18.7917C7.77704 18.7917 9.65 18.6667 10.5657 19.5837C11.9808 21.0008 12.1473 22.8347 12.1473 25.3772H12.6467V11.6227H12.1473C12.1473 14.1652 12.0224 15.9992 10.5657 17.4163C9.65 18.3332 7.77704 18.2082 7.77704 18.2082V1.16098C10.4824 1.16098 11.7727 1.3277 13.3543 2.86987C15.1856 4.70381 15.2273 10.3306 15.2273 10.3306H15.6851V0.619141H0.618164V1.16098H3.40679V36.7976Z" fill="#D4D4CD"/>
<path fill-rule="evenodd" clip-rule="evenodd" d="M33.5822 1.16098V36.7976C36.2876 36.7976 37.9525 36.6309 39.5341 35.0887C41.3654 33.2548 41.407 27.6279 41.407 27.6279H41.8649V37.3811H26.4233V36.8393H29.212V1.1193H26.4233V0.619141H36.1211V1.16098H33.5822Z" fill="#D4D4CD"/>
<path fill-rule="evenodd" clip-rule="evenodd" d="M58.3886 1.16098V36.7976C61.094 36.7976 62.7589 36.6309 64.3405 35.0887C66.1718 33.2548 66.2134 27.6279 66.2134 27.6279H66.6713V37.3811H51.2297V36.8393H54.0184V1.1193H51.2297V0.619141H60.9275V1.16098H58.3886Z" fill="#D4D4CD"/>
<path fill-rule="evenodd" clip-rule="evenodd" d="M79.449 36.7976H76.6604V37.3394H92.1019V27.5863H91.6441C91.6441 27.5863 91.6441 33.2131 89.7711 35.047C88.1895 36.6309 86.5247 36.7559 83.8193 36.7559V18.7917C83.8193 18.7917 85.6922 18.6667 86.6079 19.5837C88.023 21.0008 88.1895 22.8347 88.1895 25.3772H88.689V11.6227H88.1895C88.1895 14.1652 88.0647 15.9992 86.6079 17.4163C85.6922 18.3332 83.8193 18.2082 83.8193 18.2082V1.16098C86.5247 1.16098 87.8149 1.3277 89.3965 2.86987C91.2279 4.70381 91.2695 10.3306 91.2695 10.3306H91.7273V0.619141H76.6604V1.16098H79.449V36.7976Z" fill="#D4D4CD"/>
</g>
<defs>
<clipPath id="clip0_2009_10140">
<rect width="92.72" height="38" fill="white"/>
</clipPath>
</defs>
</svg>
