<svg width="114" height="38" viewBox="0 0 114 38" fill="none" xmlns="http://www.w3.org/2000/svg">
<mask id="mask0_2009_10126" style="mask-type:luminance" maskUnits="userSpaceOnUse" x="0" y="4" width="114" height="30">
<path d="M114 4H0V34H114V4Z" fill="white"/>
</mask>
<g mask="url(#mask0_2009_10126)">
<path fill-rule="evenodd" clip-rule="evenodd" d="M0 5.07715V5.28237V5.48759V11.3118H0.387097V5.48759H3.35419V33.5898H2.12903V34.0002H8.77355V33.5898H7.54839V5.48759H10.5155V11.3118H10.9026V5.48759V5.28237V5.07715H0Z" fill="#D4D4CD"/>
<path fill-rule="evenodd" clip-rule="evenodd" d="M38.4199 5.07715V5.28237V5.48759V11.3118H38.807V5.48759H41.7741V33.5898H40.549V34.0002H47.1935V33.5898H45.9683V5.48759H48.9354V11.3118H49.3225V5.48759V5.28237V5.07715H38.4199Z" fill="#D4D4CD"/>
<path fill-rule="evenodd" clip-rule="evenodd" d="M29.8064 33.5877L24.1026 4L18.7955 33.5877H17.3555V33.9982H20.6284V33.5877H19.411L21.2129 23.523H23.8103L25.6122 33.5877H24.3871V33.9982H31.0316V33.5877H29.8064ZM21.2903 23.1143L22.5155 16.2713L23.7406 23.1143H21.2903Z" fill="#D4D4CD"/>
<path fill-rule="evenodd" clip-rule="evenodd" d="M69.3536 27.7637V33.5898H65.0317V5.48759H66.2568V5.07715H59.6123V5.48759H60.8375V33.5898H59.6936V34.0002H69.7407V33.795V33.5898V27.7637H69.3536Z" fill="#D4D4CD"/>
<path fill-rule="evenodd" clip-rule="evenodd" d="M78.3867 5.07715V5.48759H79.6119V33.5898H78.3867V34.0002H85.0312H88.5151V33.795V33.5898V27.7637H88.128V33.5898H85.0312H83.8061V16.0336H86.4519V19.5387H86.839V16.0336V15.6232V12.2652H86.4519V15.6232H83.8061V5.48759H88.128V11.3118H88.5151V5.48759V5.28237V5.07715H78.3867Z" fill="#D4D4CD"/>
<path fill-rule="evenodd" clip-rule="evenodd" d="M112.748 33.5878L107.069 14.9729C107.785 14.8081 108.47 14.543 109.102 14.1865C109.876 13.7325 111.078 12.6737 111.521 12.0671C111.987 11.4243 113.143 8.95982 111.295 6.92217C109.617 5.07339 105.327 5.0752 105.327 5.0752H97.6514V5.48564H98.9733V33.5878H97.7152V33.9983H104.555V33.5878H103.167V5.48564H105.221C107.261 6.18484 108.74 7.90105 108.941 9.77888C109.229 12.4667 106.707 14.9584 103.328 15.4651L108.457 33.5878H107.071V33.9983H114.006V33.5878H112.748Z" fill="#D4D4CD"/>
<path fill-rule="evenodd" clip-rule="evenodd" d="M112.79 6.49192C112.628 6.49192 112.469 6.44665 112.333 6.36184C112.198 6.27703 112.093 6.15649 112.03 6.01545C111.968 5.87442 111.952 5.71922 111.984 5.5695C112.015 5.41978 112.094 5.28225 112.209 5.17431C112.324 5.06636 112.47 4.99285 112.63 4.96307C112.789 4.93329 112.955 4.94858 113.105 5.007C113.255 5.06541 113.384 5.16434 113.474 5.29127C113.565 5.4182 113.613 5.56743 113.613 5.72008C113.613 5.92478 113.526 6.1211 113.372 6.26585C113.218 6.4106 113.008 6.49192 112.79 6.49192ZM112.79 5.12985C112.666 5.12985 112.544 5.16447 112.441 5.22932C112.337 5.29418 112.257 5.38636 112.209 5.49421C112.162 5.60206 112.149 5.72073 112.173 5.83523C112.198 5.94972 112.258 6.05489 112.346 6.13744C112.434 6.21998 112.546 6.2762 112.668 6.29897C112.79 6.32174 112.916 6.31005 113.031 6.26538C113.146 6.22071 113.244 6.14506 113.313 6.04799C113.382 5.95093 113.419 5.83682 113.419 5.72008C113.419 5.56369 113.352 5.41384 113.235 5.30325C113.117 5.19267 112.957 5.13033 112.79 5.12985Z" fill="#D4D4CD"/>
<path fill-rule="evenodd" clip-rule="evenodd" d="M112.555 5.38024C112.619 5.36976 112.683 5.3649 112.748 5.36571C112.817 5.36195 112.886 5.38054 112.942 5.41838C112.961 5.43568 112.976 5.45655 112.987 5.47968C112.997 5.50281 113.002 5.52769 113.002 5.55277C113.003 5.59353 112.99 5.63361 112.965 5.66655C112.939 5.6995 112.902 5.72339 112.86 5.73438C112.89 5.74732 112.916 5.76711 112.935 5.79188C112.954 5.81665 112.967 5.8456 112.971 5.87603C112.983 5.94229 113.002 6.00734 113.027 6.07035H112.942C112.919 6.01574 112.902 5.95917 112.891 5.90146C112.868 5.80521 112.83 5.76707 112.74 5.76525H112.65V6.07035H112.555V5.37479V5.38024ZM112.651 5.70169H112.748C112.853 5.70169 112.919 5.64902 112.919 5.5673C112.919 5.48557 112.847 5.43654 112.746 5.43654C112.714 5.43331 112.682 5.43331 112.65 5.43654L112.651 5.70169Z" fill="#D4D4CD"/>
</g>
</svg>
