<svg width="109" height="38" viewBox="0 0 109 38" fill="none" xmlns="http://www.w3.org/2000/svg">
<path fill-rule="evenodd" clip-rule="evenodd" d="M43.4235 14.8954C43.5449 15.358 44.9184 20.9949 42.5141 26.17C42.2794 26.6746 39.5509 33.2891 32.1397 33.3094C24.7285 33.2891 22 26.6746 21.7652 26.17C19.3605 20.9949 20.7345 15.358 20.8559 14.8956C23.8081 4.66325 32.1125 4.80599 32.1125 4.80599H32.166C32.166 4.80599 40.4713 4.66334 43.4235 14.8954ZM37.2249 29.1635C37.4107 28.703 38.9261 25.658 38.9291 19.0618C38.9316 12.466 37.4053 9.42146 37.22 8.96045C35.8101 4.6614 32.2061 4.99409 32.2061 4.99409H32.0732C32.0732 4.99409 28.4687 4.6614 27.0594 8.96033C26.8736 9.42135 25.3582 12.4659 25.3552 19.0617C25.3527 25.6578 26.8791 28.7029 27.0648 29.1634C28.4743 33.462 32.0783 33.1299 32.0783 33.1299H32.2111C32.2111 33.1299 35.8156 33.4621 37.2249 29.1635ZM104.139 31.1072C108.84 28.2141 108.934 22.5005 108.934 22.5005H108.994V32.7193H89.3443V32.5237H91.4506V5.33682H87.7876V25.1651C87.7876 33.6997 80.8605 33.4237 79.7105 33.4237C70.7071 33.4237 70.3499 27.6436 70.3499 25.1243V5.35378H68.1811V5.15818H77.2789V5.35667H75.1106V27.1739C75.1106 28.8318 75.4748 29.6153 75.6872 30.0973C77.2639 33.322 80.2421 33.0962 80.5908 33.0962C86.1444 33.0962 87.5753 28.8095 87.5753 24.7378V5.35575H85.392V5.15218H108.167V13.952H108.081C108.081 11.3152 106.237 8.92548 105.931 8.51835C103.894 5.4446 99.8815 5.33244 99.8815 5.33244H96.2053V18.4641C99.5287 18.4641 100.234 17.5898 100.509 17.3793C102.929 15.4053 102.469 12.7679 102.469 12.7679H102.653V24.4771H102.454C102.454 21.2822 100.432 19.9426 99.897 19.5038C98.6715 18.4944 96.2054 18.6752 96.2054 18.6752V32.5183H99.238C102.24 32.3668 103.909 31.2422 104.139 31.1072ZM13.096 33.194L2.42179 5.34732H0.00683594V5.15218H9.44811L9.44662 5.35182H7.15985L15.1257 25.497L21.0902 5.35528H18.8888V5.15368H23.4597V5.35528H21.3023L13.096 33.194ZM61.3292 5.81769C64.0111 6.43599 64.9017 4.5752 64.9017 4.5752V14.4581C63.9084 9.99199 61.1373 7.08638 60.8938 6.80053C59.6014 5.34213 58.2789 4.87592 56.8043 4.87592C53.5232 4.95116 52.5048 8.12381 52.2768 8.63502C50.9083 12.033 50.8932 17.5218 50.8932 18.0023C50.7716 23.4458 51.7904 27.3858 51.9572 28.0318C52.8394 31.4298 54.3292 32.2869 54.5727 32.4671C56.5914 33.6849 58.8856 32.8472 59.1606 32.753C62.2168 31.4903 62.1406 27.9417 62.1406 27.9417V21.7318H60.0884V21.5058H68.526V21.7164H66.6716V32.7981C65.2119 30.2869 62.2929 31.7459 61.761 31.9713C58.8565 33.3544 57.8988 33.2499 57.5336 33.2797C53.8122 33.5947 51.2274 31.3098 51.0151 31.1296C46.3625 27.2045 45.8759 21.6865 45.8454 21.2358C45.2372 14.6047 48.1867 10.5894 48.3235 10.364C52.1857 4.84615 55.8465 4.68067 56.4851 4.65055C58.2634 4.49984 60.6909 5.69179 61.3292 5.81769Z" fill="#D4D4CD"/>
</svg>
